<svg height="512" viewBox="0 0 64 64" width="512" xmlns="http://www.w3.org/2000/svg"><g id="Car_insurance" data-name="Car insurance"><rect fill="#fee9ab" height="58" rx="2" width="36" x="14" y="3"/><path d="m50 5v54a2.006 2.006 0 0 1 -2 2h-4a2.006 2.006 0 0 0 2-2v-54a2.006 2.006 0 0 0 -2-2h4a2.006 2.006 0 0 1 2 2z" fill="#ffde55"/><path d="m61.38 20.44-3.63 3.44-2.82-2.82 3.63-3.44z" fill="#c6c5ca"/><path d="m61 43v6a6.641 6.641 0 0 1 -2.05 4.81l-6.95 7.19-2-2.07-4.95-5.12a6.641 6.641 0 0 1 -2.05-4.81v-6l9-4z" fill="#ffde55"/><path d="m42.1 38.73-2.83-2.83 15.66-14.84 2.82 2.82z" fill="#ff3051"/><path d="m42.1 38.73-7.07 4.24 4.24-7.07z" fill="#c6c5ca"/><rect fill="#ff7956" height="8" rx="2" width="20" x="22" y="17"/><path d="m42 19v4a2.006 2.006 0 0 1 -2 2h-4a2.006 2.006 0 0 0 2-2v-4a2.006 2.006 0 0 0 -2-2h4a2.006 2.006 0 0 1 2 2z" fill="#ff5023"/><path d="m39.5 13 .5 4h-8a3 3 0 0 0 -6 0h-2l.5-4 .28-2.25a2.007 2.007 0 0 1 1.99-1.75h10.46a2.007 2.007 0 0 1 1.99 1.75z" fill="#46f8ff"/><path d="m40 17h-3l-.5-4-.28-2.25a2.007 2.007 0 0 0 -1.99-1.75h3a2.007 2.007 0 0 1 1.99 1.75l.28 2.25z" fill="#00d7df"/><path d="m39 25v2a2.006 2.006 0 0 1 -2 2 2.015 2.015 0 0 1 -2-2v-2z" fill="#898890"/><path d="m32 17h-6a3 3 0 0 1 6 0z" fill="#46f8ff"/><path d="m29 25v2a2.006 2.006 0 0 1 -2 2 2.015 2.015 0 0 1 -2-2v-2z" fill="#898890"/><path d="m39 25v2a2 2 0 0 1 -3 1.73 2 2 0 0 0 1-1.73v-2z" fill="#57565c"/><path d="m29 25v2a2 2 0 0 1 -3 1.73 2 2 0 0 0 1-1.73v-2z" fill="#57565c"/><path d="m22 49h6v6h-6z" fill="#9cdd05"/><path d="m25 49h3v6h-3z" fill="#5eac24"/><path d="m22 37h6v6h-6z" fill="#ff3051"/><path d="m25 37h3v6h-3z" fill="#cd2a00"/><path d="m23 31a3 3 0 0 1 -3 3h-6v12h-7.99l-3.01-2v-14l5-2h12a3 3 0 0 1 3 3z" fill="#ffc477"/><path d="m10 34h4v12h-4z" fill="#ffa733"/><path d="m23 31a3 3 0 0 1 -3 3h-4a3 3 0 0 0 0-6h4a3 3 0 0 1 3 3z" fill="#ffa733"/><path d="m61 43v6a6.641 6.641 0 0 1 -2.05 4.81l-5.02 5.19-1.93 2-1.72-1.78-.28-.29 4.95-5.12a6.641 6.641 0 0 0 2.05-4.81v-6l-7-3.11 2-.89z" fill="#ffcd00"/><path d="m25 20h4v2h-4z"/><path d="m35 20h4v2h-4z"/><path d="m37 30a3 3 0 0 0 3-3v-1a3 3 0 0 0 3-3v-4a2.993 2.993 0 0 0 -2.1-2.846l-.267-2.154h2.367v-2h-2.617l-.172-1.372a3 3 0 0 0 -2.977-2.628h-10.468a3 3 0 0 0 -2.977 2.628l-.172 1.372h-2.617v2h2.367l-.267 2.154a2.993 2.993 0 0 0 -2.1 2.846v4a3 3 0 0 0 3 3v1a3 3 0 0 0 6 0v-1h4v1a3 3 0 0 0 3 3zm1-3a1 1 0 0 1 -2 0v-1h2zm-11.234-17h10.468a1 1 0 0 1 .993.876l.64 5.124h-6.009a3.981 3.981 0 0 0 -7.716 0h-.009l.64-5.124a1 1 0 0 1 .993-.876zm3.956 6h-3.444a1.983 1.983 0 0 1 3.444 0zm-7.722 7v-4a1 1 0 0 1 1-1h16a1 1 0 0 1 1 1v4a1 1 0 0 1 -1 1h-16a1 1 0 0 1 -1-1zm5 4a1 1 0 0 1 -2 0v-1h2z"/><path d="m28.48 36.14a.971.971 0 0 0 -.48-.14h-6a1 1 0 0 0 -1 1v6a1 1 0 0 0 1 1h6a1 1 0 0 0 1-1v-4.75l4.6-3.45-1.2-1.6zm-1.48 5.86h-4v-4h3l-1.6 1.2 1.2 1.6 1.4-1.05z"/><path d="m32.4 45.2-3.92 2.94a.971.971 0 0 0 -.48-.14h-6a1 1 0 0 0 -1 1v6a1 1 0 0 0 1 1h6a1 1 0 0 0 1-1v-4.75l4.6-3.45zm-5.4 8.8h-4v-4h3l-1.6 1.2 1.2 1.6 1.4-1.05z"/><path d="m62.073 21.169a1 1 0 0 0 .019-1.432l-2.829-2.829a1 1 0 0 0 -1.395-.018l-6.868 6.51v-18.4a3 3 0 0 0 -3-3h-32a3 3 0 0 0 -3 3v22h-5a1.012 1.012 0 0 0 -.372.071l-5 2a1 1 0 0 0 -.628.929v14a1 1 0 0 0 .447.833l3.01 2a1 1 0 0 0 .553.167h6.99v12a3 3 0 0 0 3 3h32a2.989 2.989 0 0 0 2.4-1.217l.882.912a1 1 0 0 0 1.438 0l6.939-7.18a7.584 7.584 0 0 0 2.341-5.515v-6a1 1 0 0 0 -.594-.914l-9-4a1 1 0 0 0 -.812 0l-.594.264v-6.682zm-22.6 16.343 1.017 1.017-2.543 1.526zm2.648-.18-1.414-1.413 14.2-13.467 1.414 1.414zm16.417-18.321 1.414 1.414-2.178 2.065-1.414-1.414zm-52.226 25.989-2.312-1.536v-12.787l4.192-1.677h11.808a2 2 0 0 1 0 4h-9a1 1 0 0 0 -1 1 3 3 0 0 1 -3 3v2a5.008 5.008 0 0 0 4.9-4h1.1v10zm45.688-4.906 8 3.556v5.35a5.66 5.66 0 0 1 -1.769 4.113l-6.231 6.448-6.231-6.448-.012-.012a5.648 5.648 0 0 1 -1.757-4.101v-5.35zm-3-.855-6.406 2.847a1 1 0 0 0 -.594.914v6a7.58 7.58 0 0 0 2.336 5.508l4.608 4.769a.989.989 0 0 1 -.944.723h-32a1 1 0 0 1 -1-1v-24h5a4 4 0 0 0 0-8h-5v-22a1 1 0 0 1 1-1h32a1 1 0 0 1 1 1v20.3l-10.416 9.874a.956.956 0 0 0 -.169.211l-4.243 7.071a1 1 0 0 0 1.372 1.372l7.071-4.243a.967.967 0 0 0 .174-.131l6.211-5.89z"/><path d="m52 52a1 1 0 0 0 .707-.293l5.657-5.657-1.414-1.414-4.95 4.95-2.122-2.122-1.414 1.414 2.829 2.829a1 1 0 0 0 .707.293z"/></g></svg>