<?xml version="1.0" encoding="utf-8"?>
<!-- Generator: Adobe Illustrator 25.2.3, SVG Export Plug-In . SVG Version: 6.00 Build 0)  -->
<svg version="1.1" id="Layer_1" xmlns="http://www.w3.org/2000/svg" xmlns:xlink="http://www.w3.org/1999/xlink" x="0px" y="0px"
	 viewBox="0 0 1920 600" style="enable-background:new 0 0 1920 600;" xml:space="preserve">
<style type="text/css">
	.st0{fill:#1B1B1F;}
	.st1{fill:#E3201B;}
	.st2{fill:url(#SVGID_1_);}
</style>
<g>
	<g>
		<path class="st0" d="M897.5,243.6c-0.2,18.9-0.8,25.3-3.5,31.2c-5.1,11.1-15.6,16.4-35.8,17.7c-8,0.8-23.6,1-49.5,1
			c-37.4,0-49.5-1.8-60-8.6c-12.9-8.2-16.6-21.8-16.6-60.4c0-34.3,3.9-46.5,17.5-54.3c11.7-6.8,24.1-8.6,60.6-8.6
			c48.5,0,59,1,70.1,6.4c10.5,5.3,15.4,16.7,15.4,35.8v4.3H858c-0.8-14.2-3.7-15.4-38-15.4c-32.3,0-38.2,0.8-43,5.1
			c-4.7,4.3-5.6,9.5-5.6,30.6c0,31.2,2.9,33.5,40.9,33.5c29.4,0,33.7-0.2,39.1-2.5c5.6-2.3,7.8-6.4,7.8-15.8H897.5z M1039.3,162.7
			h-53l-73,129.9h44.8l12.5-23.2l14.2-27.1l27.6-51.8l28,51.8l13.8,27.1l12.8,23.2h43.2L1039.3,162.7z M1128.5,162.7h112
			c23,0,33.1,1.9,40.5,8.2c7.6,6,11.1,17.1,11.1,34.7c0,24.1-5.8,33.7-22.4,37.4c16.2,2.7,21,9.5,20.6,29.2v20.4h-40.1v-16.2
			c-0.2-14-4.1-16.9-21.8-16.5h-60.6v32.7h-39.3V162.7z M1229.5,228.1c19.1,0,22.8-2.3,22.8-15.2c0-8.4-0.8-11.9-3.3-14.6
			c-2.9-3.1-6.2-3.7-18.1-3.7h-63.1v33.5H1229.5z"/>
		<path class="st1" d="M781.6,421.7l-44.8-64.5v64.5h-8.7v-71.8h14.2l42.9,61.6l43-61.6h14v71.8h-8.7v-64.5l-44.9,64.5H781.6z
			 M876.5,421.7h-10.2l42.4-71.8h11.5l42.8,71.8h-10l-9.5-16.1h-57.7L876.5,421.7z M890,398.3h49.2l-24.8-42.1L890,398.3z
			 M987,421.7v-71.8h14.5l66.3,64.9v-64.9h8.7v71.8h-14.3l-66.4-65.2v65.2H987z M1110.7,421.7h-10.2l42.4-71.8h11.5l42.8,71.8h-10
			l-9.5-16.1h-57.7L1110.7,421.7z M1124.2,398.3h49.2l-24.8-42.1L1124.2,398.3z M1263,386.3h46.7l0.1,6.4c0,11.1-1.6,18.9-4.9,23.3
			c-3.3,4.4-10.5,6.6-21.7,6.6h-17.7h-12.5c-13.6,0-22.6-2-27-6.1c-4.4-4.1-6.6-12.8-6.6-26.3v-4c0-14,1.7-23.6,5-28.8
			c3.3-5.2,11.3-7.9,24-7.9l18.1-0.2l8.7-0.1l14.3,0.5c6.9,0,11.8,1.7,14.7,5.2c2.9,3.4,4.4,8.8,4.4,16h-8.6c0-6.3-1.3-10.2-4-11.7
			c-2.7-1.5-7.6-2.2-14.9-2.2l-14.6-0.1l-8.5-0.1l-14.1,0.5c-5.5,0.5-9.3,1.5-11.6,3.1c-2.3,1.6-3.4,5.5-3.4,11.8l-0.4,18.5
			c0,7.7,0.6,13.7,1.7,17.7c1.1,4.1,6.9,6.1,17.4,6.1l18.3,0.2l7.7,0.1h1.6c3.3,0,7.6-0.3,13-0.8c5.4-0.5,8.8-2.2,10.2-5.2
			c1.4-2.9,2.2-8.1,2.2-15.5H1263V386.3z M1411.9,381v7.2h-60.2v26.3h63.2v7.2H1343v-71.8h71.1v7.3h-62.4V381H1411.9z M1501.8,421.7
			l-44.8-64.5v64.5h-8.7v-71.8h14.2l42.9,61.6l43-61.6h14v71.8h-8.7v-64.5l-44.9,64.5H1501.8z M1667.5,381v7.2h-60.2v26.3h63.2v7.2
			h-71.9v-71.8h71.1v7.3h-62.4V381H1667.5z M1703.9,421.7v-71.8h14.5l66.3,64.9v-64.9h8.7v71.8H1779l-66.4-65.2v65.2H1703.9z
			 M1854.9,421.7v-64.5h-36.2v-7.3h81.3v7.3h-36.4v64.5H1854.9z"/>
	</g>
	<linearGradient id="SVGID_1_" gradientUnits="userSpaceOnUse" x1="291.6342" y1="55.5469" x2="301.8109" y2="364.6642">
		<stop  offset="0" style="stop-color:#4D4D4D"/>
		<stop  offset="0.9992" style="stop-color:#1B1B1F"/>
	</linearGradient>
	<path class="st2" d="M566.3,216.9H566c-6.1-19.3-14.2-37.8-24.1-55C493.5,78.4,403.2,22.3,299.7,22.3C145.2,22.3,20,147.5,20,302
		c0,29.4,4.6,57.8,13,84.5h248.4c15.6,0,28.3-12.7,28.3-28.3c0-15.6-12.7-28.3-28.3-28.3h-88.2c-46.3,0-84-37.7-84-84s37.7-84,84-84
		H293v55.7h-99.8c-15.6,0-28.3,12.7-28.3,28.3c0,15.6,12.7,28.3,28.3,28.3h88.2c46.3,0,84,37.7,84,84c0,46.3-37.7,84-84,84H57.6
		c48.4,83.4,138.7,139.6,242.1,139.6c154.5,0,279.7-125.2,279.7-279.7C579.5,272.3,574.9,243.7,566.3,216.9z"/>
	<rect x="634.5" y="138.3" class="st0" width="28.5" height="327.5"/>
	<path class="st1" d="M500.8,386.5c-8.5,20.1-20.8,39.3-34.6,55.7H339.8c18.9-13.1,33.9-33.2,40.5-55.7H500.8z M379.6,329.9h135.9
		c1.1-9,1.8-18.9,1.8-28.2s-0.6-18.5-1.7-27.5H340.2C359,287.4,373,307.4,379.6,329.9z M312.5,217.6c0,0,187.8,0.1,187.8,0
		c-8.6-20.3-20.1-39.1-34.2-55.7l-153.6-0.2V217.6z"/>
</g>
</svg>
